<svg xmlns="http://www.w3.org/2000/svg" viewBox="0 0 111 30" width="111" height="30">
  <g transform="scale(0.9375)">
  <rect width="32" height="32" rx="7" fill="#0c2036"/>
  <path d="M9 23 L15 9 L18.2 16.4" stroke="#ffffff" stroke-width="2.1" stroke-linecap="round" stroke-linejoin="round" fill="none"/>
  <path d="M12.1 18.4 H25" stroke="#ffffff" stroke-width="2.1" stroke-linecap="round"/>
  <circle cx="25" cy="18.4" r="2.9" fill="#09aeae"/>
  </g>
  <g fill="#101c28" transform="translate(42,21.7)"><path d="M10.440-4.580L3.610-4.580L3.610-5.830L10.440-5.830L10.440-4.580M8.430-13.640L13.750-1.120L15.290-0.550L15.290 0L9.130 0L9.130-0.550L10.820-1.090L6.470-11.600L6.960-11.600L2.880-1.090L4.480-0.550L4.480 0L-0.140 0L-0.140-0.550L1.420-1.090L6.520-13.640" transform="translate(0.000,0)"/><path d="M5.080-1.090L6.630-0.550L6.630 0L0.790 0L0.790-0.550L2.340-1.090L2.340-12.430L0.790-12.970L0.790-13.520L6.630-13.520L6.630-12.980L5.080-12.430" transform="translate(14.620,0)"/><path d="M13.670-5.030L13.670-1.870L14.110-1.070L14.110-0.830Q13.340-0.490 12.445-0.250Q11.550-0.010 10.580 0.115Q9.610 0.240 8.580 0.240Q6.750 0.240 5.315-0.220Q3.880-0.680 2.885-1.570Q1.890-2.460 1.370-3.735Q0.850-5.010 0.850-6.640Q0.860-8.790 1.815-10.390Q2.770-11.990 4.575-12.880Q6.380-13.770 8.930-13.770Q9.680-13.770 10.380-13.675Q11.080-13.580 11.930-13.360L11.130-13.220L12.410-14.210L12.900-14.210L13.450-9.240L12.680-9.140L10.830-12.500L11.890-11.390Q11.110-11.940 10.325-12.190Q9.540-12.440 8.570-12.440Q7.360-12.440 6.450-12.120Q5.540-11.800 4.930-11.155Q4.320-10.510 4.010-9.560Q3.700-8.610 3.700-7.350Q3.690-5.280 4.350-3.880Q5.010-2.480 6.180-1.775Q7.350-1.070 8.860-1.070Q9.470-1.070 10.050-1.175Q10.630-1.280 11.135-1.490Q11.640-1.700 12-1.990L10.940-0.460L10.940-5L9.220-5.590L9.220-6.120L15.010-6.120L15.010-5.590" transform="translate(21.540,0)"/><path d="M17.600-12.410L18.470-1.120L20.050-0.550L20.050 0L14.130 0L14.130-0.550L15.700-1.060L14.940-11.660L15.080-11.640L10.420 0.090L8.630 0.090L3.880-11.580L4.010-11.600L3.390-1.120L4.960-0.550L4.960 0L0.450 0L0.450-0.550L2.050-1.120L2.830-12.330L1.150-12.980L1.150-13.520L6.070-13.520L10.390-2.700L10.170-2.700L14.460-13.520L19.170-13.520L19.170-12.980" transform="translate(36.440,0)"/><path d="M9.600-12.950L8.060-13.220L9.280-14.210L9.750-14.210L10.360-9.550L9.600-9.450L7.760-12.540L8.380-11.820Q7.850-12.200 7.260-12.380Q6.670-12.560 6-12.560Q4.720-12.560 4.075-12.065Q3.430-11.570 3.430-10.690Q3.430-10.090 3.715-9.695Q4-9.300 4.495-9.030Q4.990-8.760 5.620-8.550Q6.250-8.340 6.940-8.130Q7.630-7.910 8.320-7.620Q9.010-7.330 9.580-6.890Q10.150-6.450 10.495-5.765Q10.840-5.080 10.840-4.070Q10.840-2.640 10.145-1.685Q9.450-0.730 8.220-0.245Q6.990 0.240 5.380 0.240Q4.290 0.240 3.435 0.115Q2.580-0.010 1.660-0.340L0.860-4.140L1.640-4.140L4.300-0.370L2.120-1.800Q2.940-1.380 3.595-1.200Q4.250-1.020 5.030-1.020Q6.160-1.020 6.900-1.270Q7.640-1.520 8.005-2.015Q8.370-2.510 8.370-3.260Q8.370-3.950 8.020-4.400Q7.670-4.850 7.100-5.135Q6.530-5.420 5.845-5.630Q5.160-5.840 4.490-6.060Q3.820-6.290 3.210-6.580Q2.600-6.870 2.130-7.295Q1.660-7.720 1.390-8.350Q1.120-8.980 1.120-9.880Q1.120-11.090 1.725-11.960Q2.330-12.830 3.455-13.300Q4.580-13.770 6.120-13.770Q7.090-13.770 7.915-13.580Q8.740-13.390 9.600-12.950" transform="translate(56.410,0)"/></g>
  
</svg>
